# Blender v2.82 (sub 7) OBJ File: 'cursor.blend'
# www.blender.org
mtllib cursor.mtl
o Cube.001
v -2.946568 0.000000 -2.053382
v -2.946568 0.000000 -1.946617
v -2.999951 0.053383 -1.946617
v -2.999951 0.053383 -2.053382
v -2.999951 0.946617 -1.946617
v -2.946568 1.000000 -1.946617
v -2.946568 1.000000 -2.053382
v -2.999951 0.946617 -2.053382
v -2.946568 0.000000 -2.946617
v -2.999951 0.053383 -2.946617
v -2.946568 0.053383 -3.000000
v -2.946568 1.000000 -2.946617
v -2.946568 0.946617 -3.000000
v -2.999951 0.946617 -2.946617
v -1.946568 0.000000 -2.053382
v -1.946568 0.053383 -2.000000
v -1.999951 0.053383 -1.946617
v -2.053333 0.000000 -1.946617
v -2.053333 0.000000 -2.053382
v -1.946568 1.000000 -2.053382
v -2.053333 1.000000 -2.053382
v -2.053333 1.000000 -1.946617
v -1.999951 0.946617 -1.946617
v -1.946568 0.946617 -2.000000
v -2.053333 0.000000 -2.946617
v -2.053333 0.053383 -3.000000
v -1.946568 0.053383 -3.000000
v -1.946568 0.000000 -2.946617
v -2.053333 1.000000 -2.946617
v -1.946568 1.000000 -2.946617
v -1.946568 0.946617 -3.000000
v -2.053333 0.946617 -3.000000
v -1.053333 0.000000 -2.053382
v -0.999951 0.053383 -2.053382
v -1.053333 0.053383 -2.000000
v -1.053333 1.000000 -2.053382
v -1.053333 0.946617 -2.000000
v -0.999951 0.946617 -2.053382
v -1.053333 0.053383 -3.000000
v -0.999951 0.053383 -2.946617
v -1.053333 0.000000 -2.946617
v -1.053333 0.946617 -3.000000
v -1.053333 1.000000 -2.946617
v -0.999951 0.946617 -2.946617
v -2.999951 0.053383 -1.053382
v -2.946568 0.000000 -1.053382
v -2.946568 0.053383 -1.000000
v -2.999951 0.946617 -1.053382
v -2.946568 0.946617 -1.000000
v -2.946568 1.000000 -1.053382
v -1.999951 0.053383 -1.053382
v -2.053333 0.053383 -1.000000
v -2.053333 0.000000 -1.053382
v -1.999951 0.946617 -1.053382
v -2.053333 1.000000 -1.053382
v -2.053333 0.946617 -1.000000
v 2.053383 0.000000 -2.946617
v 1.946618 0.000000 -2.946617
v 1.946618 0.053383 -3.000000
v 2.053383 0.053383 -3.000000
v 1.946618 0.946617 -3.000000
v 1.946618 1.000000 -2.946617
v 2.053383 1.000000 -2.946617
v 2.053383 0.946617 -3.000000
v 2.946618 0.000000 -2.946617
v 2.946618 0.053383 -3.000000
v 3.000000 0.053383 -2.946617
v 2.946618 1.000000 -2.946617
v 3.000000 0.946617 -2.946617
v 2.946618 0.946617 -3.000000
v 2.053383 0.000000 -1.946617
v 2.000000 0.053383 -1.946617
v 1.946618 0.053383 -2.000000
v 1.946618 0.000000 -2.053382
v 2.053383 0.000000 -2.053382
v 2.053383 1.000000 -1.946617
v 2.053383 1.000000 -2.053382
v 1.946618 1.000000 -2.053382
v 1.946618 0.946617 -2.000000
v 2.000000 0.946617 -1.946617
v 2.946618 0.000000 -2.053383
v 3.000000 0.053383 -2.053383
v 3.000000 0.053383 -1.946617
v 2.946618 0.000000 -1.946617
v 2.946618 1.000000 -2.053383
v 2.946618 1.000000 -1.946617
v 3.000000 0.946617 -1.946617
v 3.000000 0.946617 -2.053383
v 2.053383 0.000000 -1.053382
v 2.053383 0.053383 -1.000000
v 2.000000 0.053383 -1.053382
v 2.053383 1.000000 -1.053382
v 2.000000 0.946617 -1.053382
v 2.053383 0.946617 -1.000000
v 3.000000 0.053383 -1.053383
v 2.946618 0.053383 -1.000000
v 2.946618 0.000000 -1.053383
v 3.000000 0.946617 -1.053383
v 2.946618 1.000000 -1.053383
v 2.946618 0.946617 -1.000000
v 1.053383 0.053383 -3.000000
v 1.053383 0.000000 -2.946617
v 1.000000 0.053383 -2.946617
v 1.053383 0.946617 -3.000000
v 1.000000 0.946617 -2.946617
v 1.053383 1.000000 -2.946617
v 1.053383 0.053383 -2.000000
v 1.000000 0.053383 -2.053382
v 1.053383 0.000000 -2.053382
v 1.053383 0.946617 -2.000000
v 1.053383 1.000000 -2.053382
v 1.000000 0.946617 -2.053382
v 2.946618 0.000000 2.053383
v 2.946618 0.000000 1.946617
v 3.000000 0.053383 1.946617
v 3.000000 0.053383 2.053383
v 3.000000 0.946617 1.946617
v 2.946618 1.000000 1.946617
v 2.946618 1.000000 2.053383
v 3.000000 0.946617 2.053383
v 2.946618 0.000000 2.946617
v 3.000000 0.053383 2.946617
v 2.946618 0.053383 3.000000
v 2.946618 1.000000 2.946617
v 2.946618 0.946617 3.000000
v 3.000000 0.946617 2.946617
v 1.946618 0.000000 2.053383
v 1.946618 0.053383 2.000000
v 2.000000 0.053383 1.946618
v 2.053383 0.000000 1.946618
v 2.053383 0.000000 2.053383
v 1.946618 1.000000 2.053383
v 2.053383 1.000000 2.053383
v 2.053383 1.000000 1.946618
v 2.000000 0.946617 1.946618
v 1.946618 0.946617 2.000000
v 2.053383 0.000000 2.946618
v 2.053383 0.053383 3.000000
v 1.946618 0.053383 3.000000
v 1.946618 0.000000 2.946618
v 2.053383 1.000000 2.946618
v 1.946618 1.000000 2.946618
v 1.946618 0.946617 3.000000
v 2.053383 0.946617 3.000000
v 1.053383 0.000000 2.053383
v 1.000000 0.053383 2.053383
v 1.053383 0.053383 2.000000
v 1.053383 1.000000 2.053383
v 1.053383 0.946617 2.000000
v 1.000000 0.946617 2.053383
v 1.053383 0.053383 3.000000
v 1.000000 0.053383 2.946618
v 1.053383 0.000000 2.946618
v 1.053383 0.946617 3.000000
v 1.053383 1.000000 2.946618
v 1.000000 0.946617 2.946618
v 3.000000 0.053383 1.053382
v 2.946617 0.000000 1.053382
v 2.946617 0.053383 1.000000
v 3.000000 0.946617 1.053382
v 2.946617 0.946617 1.000000
v 2.946617 1.000000 1.053382
v 2.000000 0.053383 1.053383
v 2.053382 0.053383 1.000000
v 2.053382 0.000000 1.053383
v 2.000000 0.946617 1.053383
v 2.053382 1.000000 1.053383
v 2.053382 0.946617 1.000000
v -2.053333 0.000000 2.946617
v -1.946568 0.000000 2.946617
v -1.946568 0.053383 3.000000
v -2.053333 0.053383 3.000000
v -1.946568 0.946617 3.000000
v -1.946568 1.000000 2.946617
v -2.053333 1.000000 2.946617
v -2.053333 0.946617 3.000000
v -2.946568 0.000000 2.946617
v -2.946568 0.053383 3.000000
v -2.999950 0.053383 2.946617
v -2.946568 1.000000 2.946617
v -2.999950 0.946617 2.946617
v -2.946568 0.946617 3.000000
v -2.053333 0.000000 1.946617
v -1.999951 0.053383 1.946617
v -1.946568 0.053383 2.000000
v -1.946568 0.000000 2.053383
v -2.053333 0.000000 2.053383
v -2.053333 1.000000 1.946617
v -2.053333 1.000000 2.053383
v -1.946568 1.000000 2.053383
v -1.946568 0.946617 2.000000
v -1.999951 0.946617 1.946617
v -2.946568 0.000000 2.053383
v -2.999950 0.053383 2.053383
v -2.999950 0.053383 1.946617
v -2.946568 0.000000 1.946617
v -2.946568 1.000000 2.053383
v -2.946568 1.000000 1.946617
v -2.999950 0.946617 1.946617
v -2.999950 0.946617 2.053383
v -2.053333 0.000000 1.053383
v -2.053333 0.053383 1.000000
v -1.999951 0.053383 1.053383
v -2.053333 1.000000 1.053383
v -1.999951 0.946617 1.053383
v -2.053333 0.946617 1.000000
v -2.999950 0.053383 1.053383
v -2.946568 0.053383 1.000000
v -2.946568 0.000000 1.053383
v -2.999950 0.946617 1.053383
v -2.946568 1.000000 1.053383
v -2.946568 0.946617 1.000000
v -1.053333 0.053383 3.000000
v -1.053333 0.000000 2.946617
v -0.999951 0.053383 2.946617
v -1.053333 0.946617 3.000000
v -0.999951 0.946617 2.946617
v -1.053333 1.000000 2.946617
v -1.053333 0.053383 2.000000
v -0.999951 0.053383 2.053383
v -1.053333 0.000000 2.053383
v -1.053333 0.946617 2.000000
v -1.053333 1.000000 2.053383
v -0.999951 0.946617 2.053383
vt 0.138346 0.750000
vt 0.361654 0.750000
vt 0.361654 0.750000
vt 0.138346 0.750000
vt 0.375000 0.736654
vt 0.375000 0.513346
vt 0.375000 0.513346
vt 0.375000 0.736654
vt 0.388346 0.750000
vt 0.611654 0.750000
vt 0.611654 0.750000
vt 0.388346 0.750000
vt 0.638346 0.513346
vt 0.861654 0.513346
vt 0.861654 0.736654
vt 0.638346 0.736654
vt 0.388346 0.013346
vt 0.611654 0.013346
vt 0.611654 0.236654
vt 0.388346 0.236654
vt 0.638346 0.750000
vt 0.861654 0.750000
vt 0.861654 0.750000
vt 0.638346 0.750000
vt 0.388346 0.763346
vt 0.611654 0.763346
vt 0.611654 0.986654
vt 0.388346 0.986654
vt 0.388346 0.500000
vt 0.611654 0.500000
vt 0.611654 0.500000
vt 0.388346 0.500000
vt 0.388346 0.513346
vt 0.611654 0.513346
vt 0.611654 0.736654
vt 0.388346 0.736654
vt 0.625000 0.513346
vt 0.625000 0.736654
vt 0.625000 0.736654
vt 0.625000 0.513346
vt 0.138346 0.513346
vt 0.361654 0.513346
vt 0.361654 0.736654
vt 0.138346 0.736654
vt 0.611654 0.000000
vt 0.388346 0.000000
vt 0.388346 0.000000
vt 0.611654 0.000000
vt 0.388346 0.263346
vt 0.611654 0.263346
vt 0.611654 0.486654
vt 0.388346 0.486654
vt 0.611654 0.750000
vt 0.388346 0.750000
vt 0.388346 0.750000
vt 0.611654 0.750000
vt 0.138346 0.750000
vt 0.361654 0.750000
vt 0.361654 0.750000
vt 0.138346 0.750000
vt 0.375000 0.736654
vt 0.375000 0.513346
vt 0.375000 0.513346
vt 0.375000 0.736654
vt 0.388346 0.750000
vt 0.611654 0.750000
vt 0.611654 0.750000
vt 0.388346 0.750000
vt 0.638346 0.513346
vt 0.861654 0.513346
vt 0.861654 0.736654
vt 0.638346 0.736654
vt 0.388346 0.013346
vt 0.611654 0.013346
vt 0.611654 0.236654
vt 0.388346 0.236654
vt 0.638346 0.750000
vt 0.861654 0.750000
vt 0.861654 0.750000
vt 0.638346 0.750000
vt 0.388346 0.763346
vt 0.611654 0.763346
vt 0.611654 0.986654
vt 0.388346 0.986654
vt 0.388346 0.500000
vt 0.611654 0.500000
vt 0.611654 0.500000
vt 0.388346 0.500000
vt 0.388346 0.513346
vt 0.611654 0.513346
vt 0.611654 0.736654
vt 0.388346 0.736654
vt 0.625000 0.513346
vt 0.625000 0.736654
vt 0.625000 0.736654
vt 0.625000 0.513346
vt 0.138346 0.513346
vt 0.361654 0.513346
vt 0.361654 0.736654
vt 0.138346 0.736654
vt 0.611654 0.000000
vt 0.388346 0.000000
vt 0.388346 0.000000
vt 0.611654 0.000000
vt 0.388346 0.263346
vt 0.611654 0.263346
vt 0.611654 0.486654
vt 0.388346 0.486654
vt 0.611654 0.750000
vt 0.388346 0.750000
vt 0.388346 0.750000
vt 0.611654 0.750000
vt 0.138346 0.750000
vt 0.361654 0.750000
vt 0.361654 0.750000
vt 0.138346 0.750000
vt 0.375000 0.736654
vt 0.375000 0.513346
vt 0.375000 0.513346
vt 0.375000 0.736654
vt 0.388346 0.750000
vt 0.611654 0.750000
vt 0.611654 0.750000
vt 0.388346 0.750000
vt 0.638346 0.513346
vt 0.861654 0.513346
vt 0.861654 0.736654
vt 0.638346 0.736654
vt 0.388346 0.013346
vt 0.611654 0.013346
vt 0.611654 0.236654
vt 0.388346 0.236654
vt 0.638346 0.750000
vt 0.861654 0.750000
vt 0.861654 0.750000
vt 0.638346 0.750000
vt 0.388346 0.763346
vt 0.611654 0.763346
vt 0.611654 0.986654
vt 0.388346 0.986654
vt 0.388346 0.500000
vt 0.611654 0.500000
vt 0.611654 0.500000
vt 0.388346 0.500000
vt 0.388346 0.513346
vt 0.611654 0.513346
vt 0.611654 0.736654
vt 0.388346 0.736654
vt 0.625000 0.513346
vt 0.625000 0.736654
vt 0.625000 0.736654
vt 0.625000 0.513346
vt 0.138346 0.513346
vt 0.361654 0.513346
vt 0.361654 0.736654
vt 0.138346 0.736654
vt 0.611654 0.000000
vt 0.388346 0.000000
vt 0.388346 0.000000
vt 0.611654 0.000000
vt 0.388346 0.263346
vt 0.611654 0.263346
vt 0.611654 0.486654
vt 0.388346 0.486654
vt 0.611654 0.750000
vt 0.388346 0.750000
vt 0.388346 0.750000
vt 0.611654 0.750000
vt 0.138346 0.750000
vt 0.361654 0.750000
vt 0.361654 0.750000
vt 0.138346 0.750000
vt 0.375000 0.736654
vt 0.375000 0.513346
vt 0.375000 0.513346
vt 0.375000 0.736654
vt 0.388346 0.750000
vt 0.611654 0.750000
vt 0.611654 0.750000
vt 0.388346 0.750000
vt 0.638346 0.513346
vt 0.861654 0.513346
vt 0.861654 0.736654
vt 0.638346 0.736654
vt 0.388346 0.013346
vt 0.611654 0.013346
vt 0.611654 0.236654
vt 0.388346 0.236654
vt 0.638346 0.750000
vt 0.861654 0.750000
vt 0.861654 0.750000
vt 0.638346 0.750000
vt 0.388346 0.763346
vt 0.611654 0.763346
vt 0.611654 0.986654
vt 0.388346 0.986654
vt 0.388346 0.500000
vt 0.611654 0.500000
vt 0.611654 0.500000
vt 0.388346 0.500000
vt 0.388346 0.513346
vt 0.611654 0.513346
vt 0.611654 0.736654
vt 0.388346 0.736654
vt 0.625000 0.513346
vt 0.625000 0.736654
vt 0.625000 0.736654
vt 0.625000 0.513346
vt 0.611654 0.000000
vt 0.388346 0.000000
vt 0.388346 0.000000
vt 0.611654 0.000000
vt 0.388346 0.263346
vt 0.611654 0.263346
vt 0.611654 0.486654
vt 0.388346 0.486654
vt 0.611654 0.750000
vt 0.388346 0.750000
vt 0.388346 0.750000
vt 0.611654 0.750000
vt 0.138346 0.736654
vt 0.125000 0.750000
vt 0.125000 0.736654
vt 0.625000 0.000000
vt 0.625000 0.000000
vt 0.611654 0.000000
vt 0.138346 0.513346
vt 0.125000 0.513346
vt 0.138346 0.500000
vt 0.861654 0.500000
vt 0.875000 0.513346
vt 0.361654 0.736654
vt 0.361654 0.513346
vt 0.361654 0.500000
vt 0.375000 0.500000
vt 0.625000 0.500000
vt 0.638346 0.500000
vt 0.375000 0.000000
vt 0.388346 0.000000
vt 0.611654 0.000000
vt 0.625000 0.000000
vt 0.388346 0.750000
vt 0.375000 0.750000
vt 0.625000 0.750000
vt 0.611654 0.750000
vt 0.125000 0.750000
vt 0.125000 0.736654
vt 0.625000 0.000000
vt 0.625000 0.000000
vt 0.611654 0.000000
vt 0.125000 0.513346
vt 0.138346 0.500000
vt 0.861654 0.500000
vt 0.875000 0.513346
vt 0.361654 0.500000
vt 0.375000 0.500000
vt 0.625000 0.500000
vt 0.638346 0.500000
vt 0.375000 0.000000
vt 0.388346 0.000000
vt 0.611654 0.000000
vt 0.625000 0.000000
vt 0.388346 0.750000
vt 0.375000 0.750000
vt 0.625000 0.750000
vt 0.611654 0.750000
vt 0.125000 0.750000
vt 0.125000 0.736654
vt 0.625000 0.000000
vt 0.625000 0.000000
vt 0.611654 0.000000
vt 0.125000 0.513346
vt 0.138346 0.500000
vt 0.861654 0.500000
vt 0.875000 0.513346
vt 0.361654 0.500000
vt 0.375000 0.500000
vt 0.625000 0.500000
vt 0.638346 0.500000
vt 0.375000 0.000000
vt 0.388346 0.000000
vt 0.611654 0.000000
vt 0.625000 0.000000
vt 0.388346 0.750000
vt 0.375000 0.750000
vt 0.625000 0.750000
vt 0.611654 0.750000
vt 0.125000 0.750000
vt 0.125000 0.736654
vt 0.625000 0.000000
vt 0.625000 0.000000
vt 0.611654 0.000000
vt 0.125000 0.513346
vt 0.138346 0.500000
vt 0.861654 0.500000
vt 0.875000 0.513346
vt 0.361654 0.500000
vt 0.375000 0.500000
vt 0.625000 0.500000
vt 0.638346 0.500000
vt 0.375000 0.000000
vt 0.388346 0.000000
vt 0.611654 0.000000
vt 0.625000 0.000000
vt 0.388346 0.750000
vt 0.375000 0.750000
vt 0.625000 0.750000
vt 0.611654 0.750000
vt 0.875000 0.736654
vt 0.611654 1.000000
vt 0.388346 1.000000
vt 0.361654 0.750000
vt 0.138346 0.750000
vt 0.861654 0.750000
vt 0.638346 0.750000
vt 0.125000 0.750000
vt 0.875000 0.750000
vt 0.875000 0.750000
vt 0.875000 0.736654
vt 0.611654 1.000000
vt 0.388346 1.000000
vt 0.361654 0.750000
vt 0.138346 0.750000
vt 0.861654 0.750000
vt 0.638346 0.750000
vt 0.125000 0.750000
vt 0.875000 0.750000
vt 0.875000 0.750000
vt 0.875000 0.736654
vt 0.611654 1.000000
vt 0.388346 1.000000
vt 0.361654 0.750000
vt 0.138346 0.750000
vt 0.861654 0.750000
vt 0.638346 0.750000
vt 0.125000 0.750000
vt 0.875000 0.750000
vt 0.875000 0.750000
vt 0.875000 0.736654
vt 0.611654 1.000000
vt 0.388346 1.000000
vt 0.361654 0.750000
vt 0.138346 0.750000
vt 0.861654 0.750000
vt 0.638346 0.750000
vt 0.125000 0.750000
vt 0.875000 0.750000
vt 0.875000 0.750000
vn 0.0000 -1.0000 0.0000
vn 1.0000 0.0000 0.0000
vn 0.0000 1.0000 0.0000
vn -1.0000 0.0000 0.0000
vn 0.0000 0.0000 1.0000
vn 0.0000 0.0000 -1.0000
vn -0.7071 -0.7071 0.0000
vn -0.7071 0.7071 0.0000
vn -0.5774 -0.5773 -0.5773
vn -0.5774 0.5773 -0.5773
vn 0.3665 -0.8552 0.3665
vn 0.3665 0.8552 0.3665
vn 0.0000 -0.7071 -0.7071
vn 0.0000 0.7071 -0.7071
vn 0.5774 -0.5774 0.5773
vn 0.5773 0.5774 0.5773
vn 0.5774 -0.5773 -0.5773
vn 0.5774 0.5773 -0.5773
vn -0.5773 -0.5774 0.5773
vn -0.5773 0.5774 0.5773
vn 0.5773 -0.5774 -0.5773
vn 0.5773 0.5774 -0.5773
vn -0.3665 -0.8552 0.3665
vn -0.3665 0.8552 0.3665
vn 0.7071 -0.7071 0.0000
vn 0.7071 0.7071 0.0000
vn -0.5773 -0.5774 0.5774
vn -0.5773 0.5774 0.5774
vn 0.5774 -0.5773 0.5774
vn 0.5774 0.5773 0.5774
vn -0.5774 -0.5773 0.5773
vn -0.5774 0.5773 0.5774
vn 0.5773 -0.5774 0.5773
vn -0.3665 -0.8552 -0.3665
vn -0.3665 0.8552 -0.3665
vn 0.0000 -0.7071 0.7071
vn 0.0000 0.7071 0.7071
vn -0.5774 -0.5774 -0.5773
vn -0.5773 0.5774 -0.5773
vn -0.5774 -0.5774 0.5773
vn 0.5773 -0.5774 -0.5774
vn 0.5773 0.5774 -0.5774
vn -0.5774 -0.5773 -0.5774
vn -0.5773 0.5773 -0.5774
vn -0.5774 -0.5774 0.5774
vn -0.5774 0.5774 0.5774
vn 0.3665 -0.8552 -0.3665
vn 0.3665 0.8552 -0.3665
vn 0.5774 -0.5773 -0.5774
vn 0.5773 0.5773 -0.5774
vn -0.5773 -0.5774 -0.5774
vn -0.5773 0.5774 -0.5774
vn -0.7071 0.0000 -0.7071
vn 0.7071 0.0000 0.7071
vn 0.7071 0.0000 -0.7071
vn -0.7071 0.0000 0.7071
usemtl Blue
s off
f 2/1/1 18/2/1 53/3/1 46/4/1
f 15/5/1 28/6/1 41/7/1 33/8/1
f 17/9/2 23/10/2 54/11/2 51/12/2
f 29/13/3 12/14/3 7/15/3 21/16/3
f 4/17/4 8/18/4 14/19/4 10/20/4
f 22/21/3 6/22/3 50/23/3 55/24/3
f 52/25/5 56/26/5 49/27/5 47/28/5
f 27/29/6 31/30/6 42/31/6 39/32/6
f 40/33/2 44/34/2 38/35/2 34/36/2
f 30/37/3 20/38/3 36/39/3 43/40/3
f 65/41/1 81/42/1 75/43/1 57/44/1
f 5/45/4 3/46/4 45/47/4 48/48/4
f 11/49/6 13/50/6 32/51/6 26/52/6
f 24/53/5 16/54/5 35/55/5 37/56/5
f 58/57/1 74/58/1 109/59/1 102/60/1
f 71/61/1 84/62/1 97/63/1 89/64/1
f 73/65/5 79/66/5 110/67/5 107/68/5
f 85/69/3 68/70/3 63/71/3 77/72/3
f 60/73/6 64/74/6 70/75/6 66/76/6
f 78/77/3 62/78/3 106/79/3 111/80/3
f 108/81/4 112/82/4 105/83/4 103/84/4
f 83/85/2 87/86/2 98/87/2 95/88/2
f 96/89/5 100/90/5 94/91/5 90/92/5
f 86/93/3 76/94/3 92/95/3 99/96/3
f 121/97/1 137/98/1 131/99/1 113/100/1
f 61/101/6 59/102/6 101/103/6 104/104/6
f 67/105/2 69/106/2 88/107/2 82/108/2
f 80/109/4 72/110/4 91/111/4 93/112/4
f 114/113/1 130/114/1 165/115/1 158/116/1
f 127/117/1 140/118/1 153/119/1 145/120/1
f 129/121/4 135/122/4 166/123/4 163/124/4
f 141/125/3 124/126/3 119/127/3 133/128/3
f 116/129/2 120/130/2 126/131/2 122/132/2
f 134/133/3 118/134/3 162/135/3 167/136/3
f 164/137/6 168/138/6 161/139/6 159/140/6
f 139/141/5 143/142/5 154/143/5 151/144/5
f 152/145/4 156/146/4 150/147/4 146/148/4
f 142/149/3 132/150/3 148/151/3 155/152/3
f 177/153/1 193/154/1 187/155/1 169/156/1
f 117/157/2 115/158/2 157/159/2 160/160/2
f 123/161/5 125/162/5 144/163/5 138/164/5
f 136/165/6 128/166/6 147/167/6 149/168/6
f 170/169/1 186/170/1 221/171/1 214/172/1
f 183/173/1 196/174/1 209/175/1 201/176/1
f 185/177/6 191/178/6 222/179/6 219/180/6
f 197/181/3 180/182/3 175/183/3 189/184/3
f 172/185/5 176/186/5 182/187/5 178/188/5
f 190/189/3 174/190/3 218/191/3 223/192/3
f 220/193/2 224/194/2 217/195/2 215/196/2
f 195/197/4 199/198/4 210/199/4 207/200/4
f 208/201/6 212/202/6 206/203/6 202/204/6
f 198/205/3 188/206/3 204/207/3 211/208/3
f 173/209/5 171/210/5 213/211/5 216/212/5
f 179/213/4 181/214/4 200/215/4 194/216/4
f 192/217/2 184/218/2 203/219/2 205/220/2
f 1/221/7 2/1/7 3/222/7 4/223/7
f 5/45/8 6/224/8 7/225/8 8/226/8
f 9/227/9 10/228/9 11/229/9
f 12/14/10 13/230/10 14/231/10
f 15/5/11 16/54/11 17/9/11 18/2/11 19/232/11
f 20/38/12 21/16/12 22/21/12 23/10/12 24/53/12
f 25/233/13 26/234/13 27/235/13 28/6/13
f 29/13/14 30/37/14 31/236/14 32/237/14
f 33/8/15 34/36/15 35/55/15
f 36/39/16 37/56/16 38/35/16
f 39/32/17 40/33/17 41/7/17
f 42/31/18 43/40/18 44/34/18
f 45/47/19 46/238/19 47/239/19
f 48/48/20 49/240/20 50/241/20
f 51/12/15 52/242/15 53/243/15
f 54/11/16 55/244/16 56/245/16
f 57/44/13 58/57/13 59/246/13 60/247/13
f 61/101/14 62/248/14 63/249/14 64/250/14
f 65/41/21 66/251/21 67/252/21
f 68/70/22 69/253/22 70/254/22
f 71/61/23 72/110/23 73/65/23 74/58/23 75/43/23
f 76/94/24 77/72/24 78/77/24 79/66/24 80/109/24
f 81/42/25 82/255/25 83/256/25 84/62/25
f 85/69/26 86/93/26 87/257/26 88/258/26
f 89/64/27 90/92/27 91/111/27
f 92/95/28 93/112/28 94/91/28
f 95/88/29 96/89/29 97/63/29
f 98/87/30 99/96/30 100/90/30
f 101/103/9 102/259/9 103/260/9
f 104/104/10 105/261/10 106/262/10
f 107/68/31 108/263/31 109/264/31
f 110/67/32 111/265/32 112/266/32
f 113/100/25 114/113/25 115/267/25 116/268/25
f 117/157/26 118/269/26 119/270/26 120/271/26
f 121/97/33 122/272/33 123/273/33
f 124/126/16 125/274/16 126/275/16
f 127/117/34 128/166/34 129/121/34 130/114/34 131/99/34
f 132/150/35 133/128/35 134/133/35 135/122/35 136/165/35
f 137/98/36 138/276/36 139/277/36 140/118/36
f 141/125/37 142/149/37 143/278/37 144/279/37
f 145/120/38 146/148/38 147/167/38
f 148/151/39 149/168/39 150/147/39
f 151/144/40 152/145/40 153/119/40
f 154/143/20 155/152/20 156/146/20
f 157/159/41 158/280/41 159/281/41
f 160/160/42 161/282/42 162/283/42
f 163/124/43 164/284/43 165/285/43
f 166/123/44 167/286/44 168/287/44
f 169/156/36 170/169/36 171/288/36 172/289/36
f 173/209/37 174/290/37 175/291/37 176/292/37
f 177/153/45 178/293/45 179/294/45
f 180/182/46 181/295/46 182/296/46
f 183/173/47 184/218/47 185/177/47 186/170/47 187/155/47
f 188/206/48 189/184/48 190/189/48 191/178/48 192/217/48
f 193/154/7 194/297/7 195/298/7 196/174/7
f 197/181/8 198/205/8 199/299/8 200/300/8
f 201/176/49 202/204/49 203/219/49
f 204/207/50 205/220/50 206/203/50
f 207/200/51 208/201/51 209/175/51
f 210/199/52 211/208/52 212/202/52
f 213/211/15 214/301/15 215/302/15
f 216/212/16 217/303/16 218/304/16
f 219/180/41 220/305/41 221/306/41
f 222/179/42 223/307/42 224/308/42
f 9/227/7 1/221/7 4/223/7 10/228/7
f 3/46/4 5/45/4 8/18/4 4/17/4
f 7/15/8 12/14/8 14/231/8 8/309/8
f 13/50/53 11/49/53 10/20/53 14/19/53
f 25/233/13 9/227/13 11/229/13 26/234/13
f 12/14/14 29/13/14 32/237/14 13/230/14
f 31/30/6 27/29/6 26/52/6 32/51/6
f 19/232/1 25/233/1 28/6/1 15/5/1
f 29/13/3 21/16/3 20/38/3 30/37/3
f 23/10/54 17/9/54 16/54/54 24/53/54
f 1/221/1 19/232/1 18/2/1 2/1/1
f 21/16/3 7/15/3 6/22/3 22/21/3
f 44/34/55 40/33/55 39/32/55 42/31/55
f 33/8/25 41/7/25 40/33/25 34/36/25
f 43/40/26 36/39/26 38/35/26 44/34/26
f 37/56/54 35/55/54 34/36/54 38/35/54
f 27/29/13 39/32/13 41/7/13 28/6/13
f 35/55/36 16/54/36 15/5/36 33/8/36
f 24/53/37 37/56/37 36/39/37 20/38/37
f 42/31/14 31/30/14 30/37/14 43/40/14
f 47/28/56 49/27/56 48/310/56 45/311/56
f 56/26/54 52/25/54 51/12/54 54/11/54
f 46/4/36 53/3/36 52/312/36 47/313/36
f 55/24/37 50/23/37 49/314/37 56/315/37
f 2/1/7 46/4/7 45/316/7 3/222/7
f 50/23/8 6/22/8 5/317/8 48/318/8
f 17/9/25 51/12/25 53/3/25 18/2/25
f 54/11/26 23/10/26 22/21/26 55/24/26
f 65/41/13 57/44/13 60/247/13 66/251/13
f 59/102/6 61/101/6 64/74/6 60/73/6
f 63/71/14 68/70/14 70/254/14 64/319/14
f 69/106/55 67/105/55 66/76/55 70/75/55
f 81/42/25 65/41/25 67/252/25 82/255/25
f 68/70/26 85/69/26 88/258/26 69/253/26
f 87/86/2 83/85/2 82/108/2 88/107/2
f 75/43/1 81/42/1 84/62/1 71/61/1
f 85/69/3 77/72/3 76/94/3 86/93/3
f 79/66/56 73/65/56 72/110/56 80/109/56
f 57/44/1 75/43/1 74/58/1 58/57/1
f 77/72/3 63/71/3 62/78/3 78/77/3
f 100/90/54 96/89/54 95/88/54 98/87/54
f 89/64/36 97/63/36 96/89/36 90/92/36
f 99/96/37 92/95/37 94/91/37 100/90/37
f 93/112/56 91/111/56 90/92/56 94/91/56
f 83/85/25 95/88/25 97/63/25 84/62/25
f 91/111/7 72/110/7 71/61/7 89/64/7
f 80/109/8 93/112/8 92/95/8 76/94/8
f 98/87/26 87/86/26 86/93/26 99/96/26
f 103/84/53 105/83/53 104/320/53 101/321/53
f 112/82/56 108/81/56 107/68/56 110/67/56
f 102/60/7 109/59/7 108/322/7 103/323/7
f 111/80/8 106/79/8 105/324/8 112/325/8
f 58/57/13 102/60/13 101/326/13 59/246/13
f 106/79/14 62/78/14 61/327/14 104/328/14
f 73/65/36 107/68/36 109/59/36 74/58/36
f 110/67/37 79/66/37 78/77/37 111/80/37
f 121/97/25 113/100/25 116/268/25 122/272/25
f 115/158/2 117/157/2 120/130/2 116/129/2
f 119/127/26 124/126/26 126/275/26 120/329/26
f 125/162/54 123/161/54 122/132/54 126/131/54
f 137/98/36 121/97/36 123/273/36 138/276/36
f 124/126/37 141/125/37 144/279/37 125/274/37
f 143/142/5 139/141/5 138/164/5 144/163/5
f 131/99/1 137/98/1 140/118/1 127/117/1
f 141/125/3 133/128/3 132/150/3 142/149/3
f 135/122/53 129/121/53 128/166/53 136/165/53
f 113/100/1 131/99/1 130/114/1 114/113/1
f 133/128/3 119/127/3 118/134/3 134/133/3
f 156/146/56 152/145/56 151/144/56 154/143/56
f 145/120/7 153/119/7 152/145/7 146/148/7
f 155/152/8 148/151/8 150/147/8 156/146/8
f 149/168/53 147/167/53 146/148/53 150/147/53
f 139/141/36 151/144/36 153/119/36 140/118/36
f 147/167/13 128/166/13 127/117/13 145/120/13
f 136/165/14 149/168/14 148/151/14 132/150/14
f 154/143/37 143/142/37 142/149/37 155/152/37
f 159/140/55 161/139/55 160/330/55 157/331/55
f 168/138/53 164/137/53 163/124/53 166/123/53
f 158/116/13 165/115/13 164/332/13 159/333/13
f 167/136/14 162/135/14 161/334/14 168/335/14
f 114/113/25 158/116/25 157/336/25 115/267/25
f 162/135/26 118/134/26 117/337/26 160/338/26
f 129/121/7 163/124/7 165/115/7 130/114/7
f 166/123/8 135/122/8 134/133/8 167/136/8
f 177/153/36 169/156/36 172/289/36 178/293/36
f 171/210/5 173/209/5 176/186/5 172/185/5
f 175/183/37 180/182/37 182/296/37 176/339/37
f 181/214/56 179/213/56 178/188/56 182/187/56
f 193/154/7 177/153/7 179/294/7 194/297/7
f 180/182/8 197/181/8 200/300/8 181/295/8
f 199/198/4 195/197/4 194/216/4 200/215/4
f 187/155/1 193/154/1 196/174/1 183/173/1
f 197/181/3 189/184/3 188/206/3 198/205/3
f 191/178/55 185/177/55 184/218/55 192/217/55
f 169/156/1 187/155/1 186/170/1 170/169/1
f 189/184/3 175/183/3 174/190/3 190/189/3
f 212/202/53 208/201/53 207/200/53 210/199/53
f 201/176/13 209/175/13 208/201/13 202/204/13
f 211/208/14 204/207/14 206/203/14 212/202/14
f 205/220/55 203/219/55 202/204/55 206/203/55
f 195/197/7 207/200/7 209/175/7 196/174/7
f 203/219/25 184/218/25 183/173/25 201/176/25
f 192/217/26 205/220/26 204/207/26 188/206/26
f 210/199/8 199/198/8 198/205/8 211/208/8
f 215/196/54 217/195/54 216/340/54 213/341/54
f 224/194/55 220/193/55 219/180/55 222/179/55
f 214/172/25 221/171/25 220/342/25 215/343/25
f 223/192/26 218/191/26 217/344/26 224/345/26
f 170/169/36 214/172/36 213/346/36 171/288/36
f 218/191/37 174/190/37 173/347/37 216/348/37
f 185/177/13 219/180/13 221/171/13 186/170/13
f 222/179/14 191/178/14 190/189/14 223/192/14
f 9/227/1 25/233/1 19/232/1 1/221/1
